<svg width="200" height="77" viewBox="0 0 200 77" fill="none" xmlns="http://www.w3.org/2000/svg">
<g filter="url(#filter0_d_505_2)">
<path d="M38.4986 74C58.1041 74 73.9972 58.1062 73.9972 38.5C73.9972 18.8939 58.1041 3 38.4986 3C18.8933 3 3 18.8939 3 38.5C3 58.1062 18.8933 74 38.4986 74Z" fill="white"/>
</g>
<path d="M42.2905 60L22.0328 17.3631C22.0167 17.3356 22.0063 17.3053 22.0021 17.2734C21.9979 17.2419 22 17.21 22.0083 17.1793C22.0167 17.1483 22.0311 17.1196 22.0506 17.0945C22.0701 17.0697 22.0944 17.0486 22.1221 17.0335C22.1593 17.0116 22.2015 17 22.2445 17L34.7094 17L54.9671 59.6383C54.983 59.6659 54.9934 59.6961 54.9978 59.7278C55.0022 59.7595 54.9998 59.7916 54.9915 59.8221C54.983 59.853 54.9691 59.8816 54.9491 59.9068C54.9299 59.9317 54.9055 59.9526 54.8779 59.9679C54.8411 59.9892 54.7996 59.9976 54.7568 59.9976L42.6677 60H42.2905Z" fill="url(#paint0_linear_505_2)"/>
<path d="M33.8662 58.5886L22.0712 39H9L21.5049 59.4098C21.6166 59.5894 21.7748 59.738 21.9643 59.8412C22.1537 59.9447 22.3678 59.9992 22.5859 60H33.0014C33.1754 60 33.3464 59.9565 33.4979 59.8745C33.6494 59.7925 33.7762 59.6745 33.8662 59.5318C33.9538 59.389 34 59.2267 34 59.0612C34 58.8953 33.9538 58.7314 33.8662 58.5886Z" fill="url(#paint1_linear_505_2)"/>
<path d="M9 39L21.7815 17.3688C21.8484 17.2554 21.9443 17.1616 22.0594 17.0971C22.1744 17.0323 22.3047 16.9988 22.4369 17H35L22.003 39H9Z" fill="url(#paint2_linear_505_2)"/>
<path d="M42 60L55.201 39.0014L68 39L55.291 59.529C55.203 59.6718 55.1032 59.8437 54.952 59.926C54.8009 60.0088 54.6036 59.9992 54.4293 60H42Z" fill="url(#paint3_linear_505_2)"/>
<path d="M68 38.9985L55.4949 17.6135C55.3849 17.4251 55.2268 17.2689 55.0369 17.1608C54.8471 17.0531 54.6323 16.9976 54.414 17.0001H43.9986C43.8246 17.0001 43.6535 17.045 43.502 17.131C43.3505 17.2171 43.2237 17.3406 43.1338 17.4903C43.0462 17.64 43 17.8101 43 17.9838C43 18.1571 43.0462 18.3276 43.1338 18.4769L55.1339 39L68 38.9985Z" fill="url(#paint4_linear_505_2)"/>
<path d="M84.1233 44.557C83.7937 44.557 83.5243 44.4537 83.3144 44.247C83.1049 44.0404 83 43.7746 83 43.4498V22.6309C83 22.306 83.1049 22.0402 83.3144 21.8335C83.5243 21.6269 83.7937 21.5235 84.1233 21.5235H89.2906C89.62 21.5235 89.8897 21.6269 90.0993 21.8335C90.309 22.0402 90.4138 22.306 90.4138 22.6309V24.3141C91.1926 23.3987 92.2113 22.6309 93.4693 22.0108C94.7274 21.3907 96.2102 21.0805 97.9176 21.0805C99.6551 21.0805 101.183 21.4645 102.501 22.2323C103.849 23 104.897 24.137 105.646 25.6429C106.426 27.1195 106.815 28.9356 106.815 31.0914V43.4498C106.815 43.7746 106.695 44.0404 106.455 44.247C106.245 44.4537 105.991 44.557 105.691 44.557H100.029C99.7299 44.557 99.4604 44.4537 99.2207 44.247C99.0111 44.0404 98.9062 43.7746 98.9062 43.4498V31.3571C98.9062 29.969 98.5617 28.9061 97.8727 28.1679C97.2138 27.4 96.2253 27.0162 94.9072 27.0162C93.6789 27.0162 92.6905 27.4 91.9415 28.1679C91.2227 28.9061 90.8632 29.969 90.8632 31.3571V43.4498C90.8632 43.7746 90.7434 44.0404 90.5037 44.247C90.2941 44.4537 90.0394 44.557 89.7399 44.557H84.1233ZM122.613 45C119.077 45 116.262 44.0551 114.166 42.1651C112.069 40.2752 110.975 37.4698 110.886 33.749C110.886 33.5423 110.886 33.2767 110.886 32.9517C110.886 32.6268 110.886 32.3758 110.886 32.1987C110.975 29.8659 111.5 27.8725 112.458 26.2188C113.447 24.5356 114.794 23.2658 116.502 22.4094C118.24 21.5235 120.261 21.0805 122.568 21.0805C125.204 21.0805 127.375 21.5973 129.083 22.6309C130.821 23.6645 132.123 25.0671 132.992 26.8389C133.861 28.6107 134.296 30.6335 134.296 32.9075V33.9705C134.296 34.2954 134.175 34.5611 133.935 34.7677C133.727 34.9745 133.471 35.0779 133.171 35.0779H118.794C118.794 35.1074 118.794 35.1516 118.794 35.2108C118.794 35.2699 118.794 35.3289 118.794 35.388C118.824 36.2444 118.973 37.0269 119.243 37.7356C119.513 38.4444 119.932 39.0054 120.501 39.4188C121.07 39.8323 121.759 40.039 122.568 40.039C123.167 40.039 123.662 39.9505 124.051 39.7732C124.47 39.5665 124.815 39.3451 125.083 39.1087C125.354 38.8431 125.562 38.6215 125.714 38.4444C125.982 38.1491 126.192 37.9719 126.342 37.9127C126.522 37.8243 126.791 37.7798 127.151 37.7798H132.721C133.023 37.7798 133.262 37.8685 133.441 38.0457C133.651 38.1934 133.742 38.4148 133.711 38.7101C133.682 39.2121 133.426 39.8174 132.947 40.5263C132.469 41.2349 131.764 41.9436 130.836 42.6524C129.937 43.3316 128.799 43.8927 127.42 44.3357C126.043 44.7786 124.439 45 122.613 45ZM118.794 30.6926H126.387V30.604C126.387 29.6591 126.236 28.8322 125.937 28.1235C125.669 27.4148 125.234 26.8685 124.635 26.4845C124.065 26.1008 123.377 25.9088 122.568 25.9088C121.759 25.9088 121.07 26.1008 120.501 26.4845C119.962 26.8685 119.542 27.4148 119.243 28.1235C118.943 28.8322 118.794 29.6591 118.794 30.604V30.6926ZM149.562 45C147.046 45 144.918 44.6014 143.181 43.8041C141.473 43.0067 140.155 41.8698 139.227 40.3933C138.328 38.8873 137.819 37.1007 137.7 35.0336C137.668 34.4429 137.654 33.7785 137.654 33.0403C137.654 32.2725 137.668 31.608 137.7 31.047C137.819 28.9504 138.359 27.1637 139.317 25.6873C140.275 24.2107 141.608 23.0738 143.316 22.2765C145.054 21.4792 147.135 21.0805 149.562 21.0805C152.018 21.0805 154.099 21.4792 155.808 22.2765C157.545 23.0738 158.892 24.2107 159.851 25.6873C160.809 27.1637 161.348 28.9504 161.469 31.047C161.499 31.608 161.513 32.2725 161.513 33.0403C161.513 33.7785 161.499 34.4429 161.469 35.0336C161.348 37.1007 160.825 38.8873 159.896 40.3933C158.998 41.8698 157.679 43.0067 155.942 43.8041C154.233 44.6014 152.107 45 149.562 45ZM149.562 39.596C150.909 39.596 151.883 39.1974 152.482 38.4C153.111 37.6028 153.471 36.4068 153.561 34.8121C153.59 34.3692 153.606 33.7785 153.606 33.0403C153.606 32.3021 153.59 31.7114 153.561 31.2685C153.471 29.7034 153.111 28.5222 152.482 27.7249C151.883 26.898 150.909 26.4845 149.562 26.4845C148.244 26.4845 147.271 26.898 146.641 27.7249C146.011 28.5222 145.667 29.7034 145.607 31.2685C145.577 31.7114 145.562 32.3021 145.562 33.0403C145.562 33.7785 145.577 34.3692 145.607 34.8121C145.667 36.4068 146.011 37.6028 146.641 38.4C147.271 39.1974 148.244 39.596 149.562 39.596ZM167.055 44.557C166.726 44.557 166.457 44.4537 166.246 44.247C166.038 44.0404 165.933 43.7746 165.933 43.4498V22.6309C165.933 22.306 166.038 22.0402 166.246 21.8335C166.457 21.6269 166.726 21.5235 167.055 21.5235H172.357C172.658 21.5235 172.912 21.6269 173.122 21.8335C173.361 22.0402 173.481 22.306 173.481 22.6309V43.4498C173.481 43.7746 173.361 44.0404 173.122 44.247C172.912 44.4537 172.658 44.557 172.357 44.557H167.055ZM167.01 18.2014C166.681 18.2014 166.412 18.0979 166.201 17.8913C165.992 17.6846 165.888 17.4189 165.888 17.094V13.1517C165.888 12.8268 165.992 12.561 166.201 12.3544C166.412 12.1181 166.681 12 167.01 12H172.357C172.688 12 172.957 12.1181 173.167 12.3544C173.406 12.561 173.526 12.8268 173.526 13.1517V17.094C173.526 17.4189 173.406 17.6846 173.167 17.8913C172.957 18.0979 172.688 18.2014 172.357 18.2014H167.01ZM190.698 44.557C188.78 44.557 187.119 44.2618 185.71 43.6712C184.332 43.0509 183.269 42.106 182.52 40.8363C181.772 39.537 181.397 37.8685 181.397 35.8309V27.3262H177.892C177.561 27.3262 177.278 27.2228 177.038 27.0162C176.828 26.8094 176.724 26.5437 176.724 26.2188V22.6309C176.724 22.306 176.828 22.0402 177.038 21.8335C177.278 21.6269 177.561 21.5235 177.892 21.5235H181.397V14.2147C181.397 13.8899 181.501 13.6241 181.711 13.4174C181.951 13.2108 182.22 13.1074 182.52 13.1074H187.733C188.062 13.1074 188.332 13.2108 188.541 13.4174C188.751 13.6241 188.855 13.8899 188.855 14.2147V21.5235H194.472C194.802 21.5235 195.071 21.6269 195.281 21.8335C195.491 22.0402 195.595 22.306 195.595 22.6309V26.2188C195.595 26.5437 195.491 26.8094 195.281 27.0162C195.071 27.2228 194.802 27.3262 194.472 27.3262H188.855V35.2108C188.855 36.2147 189.051 37.0121 189.439 37.6028C189.829 38.1934 190.489 38.4888 191.417 38.4888H194.876C195.206 38.4888 195.477 38.5921 195.684 38.7988C195.894 39.0054 196 39.2712 196 39.596V43.4498C196 43.7746 195.894 44.0404 195.684 44.247C195.477 44.4537 195.206 44.557 194.876 44.557H190.698Z" fill="#414141"/>
<path d="M83.1143 63.181L79 50.2039H81.4015L84.2871 59.4548L87.1541 50.2039H89.5556L88.7365 52.7809L90.8215 59.4548L93.6884 50.2039H96.0899L91.9757 63.181H89.6487L87.545 56.5442L85.4413 63.181H83.1143ZM97.5542 57.2486H102.227C101.836 56.3403 100.998 55.8212 99.8813 55.8212C98.7829 55.8212 97.9452 56.3403 97.5542 57.2486ZM99.8813 61.3087C100.812 61.3087 101.538 60.9564 101.985 60.3076H104.423C103.809 62.1799 102.153 63.3479 99.8999 63.3479C97.0144 63.3479 95.0782 61.4199 95.0782 58.5464C95.0782 55.6914 97.0144 53.7819 99.8999 53.7819C102.785 53.7819 104.703 55.6914 104.703 58.5464C104.703 58.8059 104.684 59.0469 104.666 59.288H97.3867C97.6288 60.5671 98.5595 61.3087 99.8813 61.3087ZM110.21 63.181V50.2039H116.466C118.587 50.2039 119.928 51.6314 119.928 53.6336C119.928 54.8943 119.407 55.6728 118.607 56.0992C119.853 56.5071 120.859 57.5638 120.859 59.3806C120.859 61.6052 119.37 63.181 116.987 63.181H110.21ZM116.168 55.2093C117.024 55.2093 117.601 54.6347 117.601 53.7819C117.601 52.8921 117.024 52.3359 116.168 52.3359H112.537V55.2093H116.168ZM116.688 61.0491C117.787 61.0491 118.532 60.3076 118.532 59.2137C118.532 58.0829 117.787 57.3414 116.688 57.3414H112.537V61.0491H116.688ZM125.982 63.3479C122.91 63.3479 121.7 61.0491 121.7 59.4362V53.9117H123.934V59.3806C123.934 60.6783 124.903 61.2901 125.982 61.2901C127.061 61.2901 128.03 60.6783 128.03 59.3806V53.9117H130.264V59.4362C130.264 61.0491 129.054 63.3479 125.982 63.3479ZM131.169 51.2235C131.169 50.5562 131.709 50 132.398 50C133.087 50 133.627 50.5562 133.627 51.2235C133.627 51.928 133.087 52.4657 132.398 52.4657C131.709 52.4657 131.169 51.928 131.169 51.2235ZM131.281 63.181V53.9117H133.515V63.181H131.281ZM134.626 63.181V50.2039H136.86V63.181H134.626ZM145.101 50.2039H147.335V58.5649C147.335 61.5496 145.194 63.3294 142.458 63.3294C139.647 63.3294 137.71 61.4199 137.71 58.5649C137.71 55.6914 139.647 53.7634 142.346 53.7634C143.687 53.7634 144.655 54.2453 145.101 54.8201V50.2039ZM139.944 58.5464C139.944 60.2705 140.968 61.2901 142.514 61.2901C144.077 61.2901 145.101 60.2705 145.101 58.5464C145.101 56.8223 144.077 55.8027 142.514 55.8027C140.968 55.8027 139.944 56.8223 139.944 58.5464ZM153.115 63.181V50.2039H158.048C161.921 50.2039 164.323 52.7623 164.323 56.6183C164.323 60.6227 161.921 63.181 158.048 63.181H153.115ZM155.442 61.0491H157.825C160.431 61.0491 161.996 59.325 161.996 56.7295C161.996 54.0414 160.431 52.3359 157.825 52.3359H155.442V61.0491ZM165.057 51.2235C165.057 50.5562 165.597 50 166.286 50C166.975 50 167.515 50.5562 167.515 51.2235C167.515 51.928 166.975 52.4657 166.286 52.4657C165.597 52.4657 165.057 51.928 165.057 51.2235ZM165.169 63.181V53.9117H167.403V63.181H165.169ZM177.768 58.5649V62.8103C177.768 65.2574 175.925 67 173.114 67C171.235 67 169.726 66.2028 168.758 64.9793L170.583 63.7001C171.085 64.3119 171.849 64.9608 173.133 64.9608C174.679 64.9608 175.535 64.0524 175.535 62.8103V62.2727C175.088 62.8474 174.138 63.3294 172.78 63.3294C170.081 63.3294 168.143 61.4013 168.143 58.5278C168.143 55.6728 170.081 53.7634 172.947 53.7634C175.832 53.7634 177.768 55.6914 177.768 58.5649ZM175.535 58.5464C175.535 56.8223 174.511 55.8027 172.966 55.8027C171.401 55.8027 170.377 56.8223 170.377 58.5464C170.377 60.2705 171.401 61.2901 172.966 61.2901C174.511 61.2901 175.535 60.2705 175.535 58.5464ZM178.674 51.2235C178.674 50.5562 179.214 50 179.903 50C180.591 50 181.132 50.5562 181.132 51.2235C181.132 51.928 180.591 52.4657 179.903 52.4657C179.214 52.4657 178.674 51.928 178.674 51.2235ZM178.786 63.181V53.9117H181.02V63.181H178.786ZM186.731 61.2716V63.3109C183.678 63.3109 182.058 61.7721 182.058 58.9172V50.2039H184.293V53.9117H186.415V55.9509H184.293V58.8986C184.293 60.5856 184.982 61.2716 186.731 61.2716ZM191.836 53.7819C194.721 53.7819 196.658 55.7099 196.658 58.5834V63.181H194.424V62.2912C193.977 62.8659 193.028 63.3479 191.669 63.3479C188.97 63.3479 187.033 61.4199 187.033 58.5464C187.033 55.6914 188.97 53.7819 191.836 53.7819ZM194.424 58.5649C194.424 56.8408 193.4 55.8212 191.855 55.8212C190.291 55.8212 189.267 56.8408 189.267 58.5649C189.267 60.289 190.291 61.3087 191.855 61.3087C193.4 61.3087 194.424 60.289 194.424 58.5649ZM197.766 63.181V50.2039H200V63.181H197.766Z" fill="#656565"/>
<defs>
<filter id="filter0_d_505_2" x="0" y="0" width="76.998" height="77" filterUnits="userSpaceOnUse" color-interpolation-filters="sRGB">
<feFlood flood-opacity="0" result="BackgroundImageFix"/>
<feColorMatrix in="SourceAlpha" type="matrix" values="0 0 0 0 0 0 0 0 0 0 0 0 0 0 0 0 0 0 127 0" result="hardAlpha"/>
<feOffset/>
<feGaussianBlur stdDeviation="1.5"/>
<feComposite in2="hardAlpha" operator="out"/>
<feColorMatrix type="matrix" values="0 0 0 0 0.209302 0 0 0 0 0.209302 0 0 0 0 0.209302 0 0 0 0.15 0"/>
<feBlend mode="normal" in2="BackgroundImageFix" result="effect1_dropShadow_505_2"/>
<feBlend mode="normal" in="SourceGraphic" in2="effect1_dropShadow_505_2" result="shape"/>
</filter>
<linearGradient id="paint0_linear_505_2" x1="28.4556" y1="16.9197" x2="50.3811" y2="54.0939" gradientUnits="userSpaceOnUse">
<stop stop-color="#71706D"/>
<stop offset="0.709804" stop-color="#2E2E2E"/>
<stop offset="1" stop-color="#181818"/>
</linearGradient>
<linearGradient id="paint1_linear_505_2" x1="33.8943" y1="60" x2="10.8956" y2="37.043" gradientUnits="userSpaceOnUse">
<stop stop-color="#DF643A"/>
<stop offset="1" stop-color="#F6C667"/>
</linearGradient>
<linearGradient id="paint2_linear_505_2" x1="13.0936" y1="38.9384" x2="27.0607" y2="16.9659" gradientUnits="userSpaceOnUse">
<stop stop-color="#FFCD69"/>
<stop offset="0.239216" stop-color="#FFCD69"/>
<stop offset="1" stop-color="#DF643A" stop-opacity="0.94"/>
</linearGradient>
<linearGradient id="paint3_linear_505_2" x1="49.0062" y1="60" x2="59.8127" y2="38.4141" gradientUnits="userSpaceOnUse">
<stop stop-color="#FFCC69" stop-opacity="0.94"/>
<stop offset="1" stop-color="#DF643A"/>
</linearGradient>
<linearGradient id="paint4_linear_505_2" x1="60.926" y1="39.0616" x2="48.916" y2="16.7977" gradientUnits="userSpaceOnUse">
<stop stop-color="#F5B853"/>
<stop offset="1" stop-color="#DF643A"/>
</linearGradient>
</defs>
</svg>
